<?xml version="1.0" encoding="utf-8"?>
<!-- Generator: Adobe Illustrator 21.1.0, SVG Export Plug-In . SVG Version: 6.00 Build 0)  -->
<svg version="1.1" id="Layer_1" xmlns="http://www.w3.org/2000/svg" xmlns:xlink="http://www.w3.org/1999/xlink" x="0px" y="0px"
	 width="200px" height="60px" viewBox="0 0 200 60" style="enable-background:new 0 0 200 60;" xml:space="preserve">
<style type="text/css">
	.st0{fill:#231F20;}
	.st1{fill:url(#SVGID_1_);}
	.st2{fill:url(#SVGID_2_);}
	.st3{fill:url(#SVGID_3_);}
	.st4{fill:url(#SVGID_4_);}
	.st5{fill:url(#SVGID_5_);}
	.st6{fill:url(#SVGID_6_);}
	.st7{fill:url(#SVGID_7_);}
	.st8{fill:url(#SVGID_8_);}
	.st9{fill:url(#SVGID_9_);}
	.st10{fill:url(#SVGID_10_);}
	.st11{fill:url(#SVGID_11_);}
	.st12{fill:url(#SVGID_12_);}
	.st13{fill:url(#SVGID_13_);}
	.st14{fill:url(#SVGID_14_);}
	.st15{fill:url(#SVGID_15_);}
	.st16{fill:url(#SVGID_16_);}
	.st17{fill:url(#SVGID_17_);}
	.st18{fill:url(#SVGID_18_);}
	.st19{fill:url(#SVGID_19_);}
	.st20{fill:url(#SVGID_20_);}
	.st21{fill:url(#SVGID_21_);}
	.st22{fill:url(#SVGID_22_);}
</style>
<g>
	<g>
		<g>
			<path class="st0" d="M23.5,9.2v9.5c0,0-0.1,0-0.1,0.1c0,0.1-0.1,0.1-0.1,0.1c0,0-0.1-0.1-0.1-0.2c-0.2-1.8-0.5-3.2-0.7-4.3
				c-0.2-1.1-0.6-2-1.1-2.8c-0.5-0.8-1.2-1.4-2.2-1.8c-0.4-0.2-0.8-0.2-1.3-0.2c-0.1,0-0.3,0-0.6,0c-0.3,0-0.6,0-0.9,0l0.1,22.5H20
				v0.4h-10v-0.4h3.4l0-22.5c-0.1,0-0.4,0-0.7,0c-0.3,0-0.5,0-0.6,0c-0.5,0-0.9,0.1-1.2,0.2c-0.8,0.4-1.5,0.9-2,1.6
				c-0.5,0.6-0.9,1.4-1.2,2.1c-0.3,0.8-0.4,1.4-0.5,2c-0.1,0.6-0.2,1.7-0.4,3.2H6.4V9.2H23.5z"/>
		</g>
		<g>
			<path class="st0" d="M33.6,9.5c1.1,0,2.1,0.3,3.1,1c0.9,0.7,1.7,1.5,2.4,2.5c0.7,1.1,1.3,2.4,1.7,3.9c0.4,1.5,0.6,3.1,0.6,4.7
				c0,3-0.6,5.4-1.7,7.3c-0.5,0.9-1.3,1.8-2.5,2.6c-1.1,0.8-2.4,1.2-3.8,1.2c-1.4,0-2.5-0.2-3.3-0.7c-0.7-0.5-1.6-1.3-2.4-2.6
				c-0.5-0.8-1-1.7-1.4-2.6c-0.4-0.9-0.6-1.9-0.8-2.9c-0.2-1-0.3-2-0.3-3.1c0-3,0.7-5.5,2.1-7.6C28.8,10.8,31,9.6,33.6,9.5z
				 M33.7,10c-1.1,0-2.1,0.3-2.7,0.8c-0.7,0.5-1.1,1-1.3,1.5c-0.4,1.1-0.7,2.5-0.9,4.3c-0.2,1.8-0.3,3.6-0.3,5.4
				c0,2.8,0.2,5,0.7,6.7c0.2,0.8,0.5,1.3,0.7,1.6c0.3,0.3,0.6,0.7,1.1,1.1c0.7,0.5,1.5,0.8,2.3,0.8c0.9,0,1.7-0.3,2.5-0.8
				c0.4-0.3,0.8-0.8,1.2-1.3c0.4-0.6,0.6-1.1,0.6-1.7c0.1-1.7,0.3-3.2,0.3-4.5c0.1-1.2,0.1-2.5,0.1-3.7c0-3.2-0.3-5.8-0.9-8
				c-0.1-0.6-0.5-1.1-1.2-1.5C35.1,10.2,34.4,10,33.7,10z"/>
		</g>
		<g>
			<path class="st0" d="M43.8,9.3c0.4,0,0.9,0,1.6,0c0.7,0,1.4,0,2.1,0c0.7,0,1.3,0,1.9,0c0.6,0,1,0,1.4,0c1.5,0,2.9,0.1,4,0.2
				c1.2,0.1,2.2,0.4,3.1,0.8c0.9,0.4,1.7,0.9,2.2,1.6c0.6,0.7,0.9,1.6,1.1,2.7c0,0.4,0.1,0.7,0.1,0.9c0,1.7-0.7,3.3-2.2,4.7
				c-1,1-2.8,1.5-5.3,1.5c-0.4,0-1.7-0.1-3.8-0.2v9.9c0,0.7,1.2,1,3.6,1v0.4l-9.8,0v-0.4c0.5,0,1.2-0.1,2-0.2c0.8-0.2,1.2-0.5,1.2-1
				l0-21.3h-3.3V9.3z M58,11.8c-0.2-0.6-0.6-1.1-1.4-1.4c-0.7-0.3-1.5-0.5-2.3-0.6c-0.8-0.1-1.8-0.1-2.8-0.1h-1.3v11.1
				c1.9,0.2,3.1,0.3,3.6,0.3c2,0,3.3-0.5,4-1.5c0.6-0.9,0.9-2.1,0.9-3.7C58.6,14.5,58.4,13.2,58,11.8z"/>
		</g>
		<g>
			<path class="st0" d="M89.9,9.2v9.5c0,0-0.1,0-0.1,0.1c0,0.1-0.1,0.1-0.1,0.1c0,0-0.1-0.1-0.1-0.2c-0.2-1.8-0.5-3.2-0.7-4.3
				c-0.2-1.1-0.6-2-1.1-2.8c-0.5-0.8-1.2-1.4-2.2-1.8c-0.4-0.2-0.8-0.2-1.3-0.2c-0.1,0-0.3,0-0.6,0c-0.3,0-0.6,0-0.9,0l0.1,22.5h3.6
				v0.4h-10v-0.4h3.4l0-22.5c-0.1,0-0.4,0-0.7,0c-0.3,0-0.5,0-0.6,0c-0.5,0-0.9,0.1-1.2,0.2c-0.8,0.4-1.5,0.9-2,1.6
				c-0.5,0.6-0.9,1.4-1.2,2.1c-0.3,0.8-0.4,1.4-0.5,2c-0.1,0.6-0.2,1.7-0.4,3.2h-0.2V9.2H89.9z"/>
		</g>
		<g>
			<path class="st0" d="M92.3,9.3h13.1c0.8,0,1.5,0.3,2.1,0.8c0.6,0.5,1.1,1.2,1.4,2c0.4,1,0.6,2,0.6,3.2c0,0.9-0.2,1.7-0.5,2.3
				c-0.3,0.6-0.7,1.2-1.2,1.6c-0.5,0.4-1,0.7-1.6,0.9c-0.5,0.2-1.3,0.5-2.2,0.7c0.9,0.3,1.6,0.5,2,0.7c0.4,0.1,0.8,0.4,1.2,0.7
				c0.4,0.3,0.7,0.8,0.9,1.4c0.3,0.8,0.5,2,0.7,3.4s0.3,2.5,0.5,3.2c0.2,0.7,0.6,1.4,1.3,2c0.1,0.1,0.6,0.2,1.3,0.2
				c0.3,0,0.5,0,0.8,0c0.2,0,0.4,0,0.5,0v0.4h-1.5c-1.2,0-2.3-0.1-3.1-0.4c-0.8-0.3-1.5-0.9-1.8-1.8c-0.4-0.8-0.6-2.1-0.8-4
				c-0.2-1.9-0.4-3.2-0.7-4c-0.2-0.8-0.8-1.2-1.7-1.2h-4.9v11h2.9v0.4l-9.3,0v-0.4h3.4V9.7h-3.4V9.3z M106.3,12.1
				c-0.4-0.9-1-1.5-1.9-1.8c-0.9-0.3-2.1-0.5-3.5-0.5c-0.3,0-0.6,0-1.1,0c-0.5,0-0.9,0-1.1,0v10.7c0.1,0,0.3,0,0.5,0
				c0.2,0,0.5,0,0.9,0c1.3,0,2.5-0.1,3.6-0.3c1.1-0.2,1.8-0.5,2.1-0.9c0.7-1.1,1.1-2.4,1.1-4.1C106.9,14.2,106.7,13.1,106.3,12.1z"
				/>
		</g>
		<g>
			<path class="st0" d="M115.7,9.3h16.8v7.8h-0.3c-0.1-1.2-0.2-2-0.3-2.6c-0.1-0.5-0.2-1.1-0.4-1.8c-0.2-0.7-0.6-1.2-1-1.7
				c-0.4-0.5-1-0.8-1.7-1c-1-0.2-2.1-0.4-3.4-0.4c-0.2,0-0.6,0-1.2,0c-0.6,0-1.2,0-1.7,0L122,9.8v9.8c0.5,0,1,0,1.7,0
				c0.6,0,1.1,0,1.5,0c0.6,0,1.1-0.3,1.4-0.8c0.3-0.5,0.5-1.2,0.6-1.9c0.1-0.7,0.2-1.5,0.4-2.2l0.2,0v10.5h-0.2
				c-0.1-0.6-0.2-1.2-0.2-1.7c-0.1-0.5-0.2-1-0.3-1.5s-0.4-0.9-0.7-1.2c-0.3-0.3-0.7-0.5-1.2-0.5H122v11.6c0.3,0,0.8,0,1.5,0
				c0.7,0,1.2,0,1.5,0c1.1,0,2.1-0.1,3-0.4c0.9-0.2,1.7-0.7,2.3-1.4c0.5-0.4,0.8-0.9,1.1-1.5s0.5-1.1,0.6-1.6
				c0.1-0.5,0.2-1.1,0.3-1.8c0.1-0.7,0.2-1.3,0.3-1.9h0.2v8.9l-17.4,0v-0.5h3.3l0.3-0.4v-22c-0.4-0.1-1-0.1-1.7-0.1
				c-0.7,0-1.3,0-1.7,0V9.3z"/>
		</g>
		<g>
			<path class="st0" d="M135.2,9.3h5.9l9.5,17.3V12.1c0-1.6-1.1-2.4-3.4-2.4V9.3h7.5v0.4c-2.4,0-3.6,0.7-3.6,2v20.9h-0.4l-11.4-20.7
				v17.4c0,1.3,0.8,2.2,2.4,2.7c0.3,0.1,0.5,0.1,0.8,0.2c0.3,0,0.5,0,0.7,0v0.5l-8.2,0v-0.5c0.9,0,1.5,0,1.7-0.1
				c0.6-0.1,1-0.5,1.3-1.2c0.3-0.7,0.5-1.5,0.6-2.5c0.1-1,0.1-2.1,0.1-3.4V11c0-0.9-1.2-1.3-3.6-1.3V9.3z"/>
		</g>
		<g>
			<path class="st0" d="M157.3,9.3H169c1.1,0,2.1,0.3,3,0.9c0.9,0.6,1.7,1.5,2.3,2.5s1.2,2.3,1.5,3.6c0.4,1.3,0.6,2.7,0.6,4.2
				c0,2.9-0.4,5.2-1.2,7c-0.8,1.7-2.1,3-3.9,4c-1.5,0.8-3.1,1.2-4.9,1.2h-9.3v-0.4h3.5l0-22.6h-3.3V9.3z M167.3,9.7h-3.5v22.5h3
				c1.3,0,2.4-0.3,3.4-0.9c1-0.6,1.6-1.4,1.8-2.4c0.7-3.4,1.1-6.4,1.1-9c0-3-0.4-5.6-1.3-7.8c-0.2-0.5-0.5-0.9-1-1.3
				c-0.5-0.4-1-0.7-1.6-0.9C168.5,9.8,167.9,9.7,167.3,9.7z"/>
		</g>
		<g>
			<path class="st0" d="M183.6,9.3c1.3,0,2.4,0.2,3.3,0.7c0.9,0.5,1.6,1.2,2.3,2.1c0.8-0.6,1.5-1.4,2.1-2.4l0,8.4l-0.2-0.1
				c-0.4-1.5-0.7-2.6-0.9-3.3c-0.2-0.7-0.6-1.5-1.2-2.3c-0.5-0.8-1.3-1.4-2.2-1.9c-1-0.6-2-0.8-3-0.8c-0.5,0-1,0.1-1.5,0.2
				c-1.4,0.5-2.2,1.2-2.6,2.1c-0.3,0.8-0.5,1.4-0.5,1.8c0,0.5,0.2,0.9,0.5,1.3c1,1,2.3,1.9,3.8,2.7c1.5,0.8,3,1.5,4.4,2.2
				c1.4,0.7,2.5,1.6,3.3,2.5c0.8,1,1.1,2.2,1.1,3.8c0,0.4,0,0.7,0,0.9c-0.2,2.1-1.3,3.7-3.4,4.8c-0.8,0.4-1.7,0.6-2.6,0.6
				c-1.5,0-2.9-0.5-4.2-1.5c-0.3-0.2-0.6-0.5-0.9-0.8c-0.3-0.3-0.5-0.6-0.7-0.7c-0.4,0.3-0.8,0.8-1.3,1.4c-0.4,0.6-0.8,1.1-1,1.5
				v-9.4h0.2c0.2,1.3,0.5,2.5,1,3.7s1.1,2.2,2,3.1c0.8,0.9,1.8,1.6,3,2c0.6,0.2,1.2,0.3,1.8,0.3c1.4,0,2.6-0.5,3.5-1.5
				c0.4-0.4,0.8-0.9,1-1.5c0.3-0.6,0.4-1.2,0.4-1.7c0-0.7-0.2-1.2-0.6-1.7c-0.6-0.6-1.6-1.3-2.8-2c-1.3-0.7-2.7-1.4-4.3-2.3
				c-1.6-0.9-2.9-1.8-3.7-2.8c-0.9-1-1.3-2.2-1.3-3.6c0-1,0.2-2,0.7-3.2C179.8,10.4,181.3,9.5,183.6,9.3z"/>
		</g>
	</g>
	<g>
		<g>
			<linearGradient id="SVGID_1_" gradientUnits="userSpaceOnUse" x1="29.6163" y1="31.344" x2="158.2708" y2="112.3906">
				<stop  offset="0" style="stop-color:#DBA73C"/>
				<stop  offset="0.16" style="stop-color:#D89D39"/>
				<stop  offset="0.54" style="stop-color:#F2F2B8"/>
				<stop  offset="0.56" style="stop-color:#F5EB98"/>
				<stop  offset="0.69" style="stop-color:#D4B667"/>
				<stop  offset="0.85" style="stop-color:#CFAA5B"/>
				<stop  offset="1" style="stop-color:#DFC67D"/>
			</linearGradient>
			<path class="st1" d="M39.8,52l0-0.1c0.9-2.2,3.7-6.3,5.7-8.9c-3.2,2.5-10.7,7.5-15.8,7.5c-1,0-1.9-0.2-2.6-0.6
				c-1.1-0.6-1.6-1.6-1.6-3c0-6.1,10.1-18.4,22.6-21.2c0.9-0.2,1.8-0.3,2.5-0.3c2,0,2.9,0.8,2.9,2c0,1.2-0.9,2.8-2.7,4.6
				c-0.1,0.1-0.1,0.1-0.2,0.1c-0.2,0-0.3-0.2-0.3-0.3c0-0.1,0-0.1,0.1-0.2c1.6-1.6,2.5-3.1,2.5-4.2c0-0.9-0.7-1.5-2.3-1.5
				c-0.6,0-1.4,0.1-2.4,0.3c-8.3,1.8-17.8,9.1-21.2,17c-0.5,1.2-0.9,2.5-0.9,3.7c0,1.1,0.3,2,1.3,2.5c0.6,0.3,1.4,0.5,2.3,0.5
				c5.6,0,15.4-6.7,18.2-9.8c-3.3,0.1-8.9,0.5-9.9,0.6h-0.1c-0.1,0-0.2-0.1-0.2-0.2c0-0.1,0.1-0.2,0.3-0.2c1.9-0.2,9.8-0.7,13.6-0.7
				h0.9c0.2,0,0.3,0.1,0.3,0.3c0,0.1-0.1,0.3-0.3,0.3h0c-0.8,0-1.8-0.1-2.9-0.1h-0.8c-2.9,3.2-6.8,8.2-8.4,12
				c-0.1,0.1-0.2,0.2-0.3,0.2C40,52.3,39.8,52.2,39.8,52z"/>
			<linearGradient id="SVGID_2_" gradientUnits="userSpaceOnUse" x1="29.615" y1="31.3461" x2="158.2695" y2="112.3927">
				<stop  offset="0" style="stop-color:#DBA73C"/>
				<stop  offset="0.16" style="stop-color:#D89D39"/>
				<stop  offset="0.54" style="stop-color:#F2F2B8"/>
				<stop  offset="0.56" style="stop-color:#F5EB98"/>
				<stop  offset="0.69" style="stop-color:#D4B667"/>
				<stop  offset="0.85" style="stop-color:#CFAA5B"/>
				<stop  offset="1" style="stop-color:#DFC67D"/>
			</linearGradient>
			<path class="st2" d="M40.1,52.4c-0.2,0-0.4-0.2-0.4-0.4l0,0l0-0.1c0.9-2,3.2-5.5,5.2-8.2c-3.6,2.7-10.4,6.9-15.1,6.9
				c-1,0-1.9-0.2-2.6-0.6c-1.1-0.6-1.6-1.7-1.6-3.1c0-6.3,10.4-18.6,22.7-21.3c0.9-0.2,1.7-0.3,2.5-0.3c1.9,0,3,0.8,3,2.1
				c0,1.3-1,3-2.7,4.7c-0.3,0.3-0.7,0-0.7-0.3c0-0.1,0-0.2,0.2-0.3c1.6-1.6,2.5-3.1,2.5-4.1c0-1.1-1.2-1.4-2.2-1.4
				c-0.6,0-1.4,0.1-2.3,0.3c-8.5,1.9-17.8,9.3-21.1,16.9c-0.6,1.3-0.9,2.6-0.9,3.6c0,1.1,0.4,1.9,1.2,2.4c0.6,0.3,1.3,0.5,2.2,0.5
				c5.5,0,14.9-6.5,17.9-9.5c-2.8,0.1-6.9,0.4-8.7,0.5c-0.4,0-0.7,0.1-0.9,0.1h-0.1c-0.2,0-0.3-0.1-0.3-0.3c0-0.2,0.2-0.3,0.4-0.3
				c1.9-0.2,9.9-0.7,13.6-0.7h0.9c0.2,0,0.4,0.2,0.4,0.4c0,0.2-0.1,0.4-0.4,0.4h0c-0.7,0-1.7-0.1-2.9-0.1h-0.8
				c-2.8,3.1-6.7,8.1-8.4,12C40.4,52.3,40.3,52.4,40.1,52.4z M40,52c0,0.1,0.2,0.2,0.3,0c1.7-3.9,5.6-8.9,8.5-12.1l0,0h0.9
				c1.2,0,2.2,0,2.9,0.1c0.1,0,0.2-0.1,0.2-0.1c0,0,0-0.2-0.1-0.2h-0.9c-3.7,0-11.6,0.5-13.6,0.7c-0.1,0-0.2,0.1-0.2,0.1
				c0,0,0,0.1,0.1,0.1h0.1c0.2,0,0.5,0,0.9-0.1c1.9-0.1,6.2-0.5,9-0.5l0.3,0l-0.2,0.2c-2.8,3-12.7,9.8-18.3,9.8
				c-0.9,0-1.7-0.2-2.3-0.5c-0.9-0.5-1.3-1.4-1.3-2.6c0-1.1,0.3-2.4,0.9-3.7c3.3-7.7,12.7-15.2,21.3-17.1c0.9-0.2,1.7-0.3,2.4-0.3
				c2,0,2.5,0.9,2.5,1.6c0,1.1-0.9,2.6-2.6,4.3c-0.1,0-0.1,0-0.1,0.1c0,0.1,0.1,0.2,0.2,0.2c0,0,0.1,0,0.1-0.1
				c1.7-1.7,2.6-3.3,2.6-4.5c0-1.2-1-1.9-2.8-1.9c-0.7,0-1.5,0.1-2.4,0.3c-12.2,2.7-22.5,14.8-22.5,21c0,1.4,0.5,2.3,1.5,2.9
				c0.7,0.4,1.5,0.6,2.5,0.6c5,0,12.4-4.9,15.7-7.4l0.8-0.6l-0.6,0.8C43.6,45.8,40.9,49.8,40,52L40,52z"/>
		</g>
		<g>
			<linearGradient id="SVGID_3_" gradientUnits="userSpaceOnUse" x1="32.0277" y1="27.5161" x2="160.6822" y2="108.5628">
				<stop  offset="0" style="stop-color:#DBA73C"/>
				<stop  offset="0.16" style="stop-color:#D89D39"/>
				<stop  offset="0.54" style="stop-color:#F2F2B8"/>
				<stop  offset="0.56" style="stop-color:#F5EB98"/>
				<stop  offset="0.69" style="stop-color:#D4B667"/>
				<stop  offset="0.85" style="stop-color:#CFAA5B"/>
				<stop  offset="1" style="stop-color:#DFC67D"/>
			</linearGradient>
			<path class="st3" d="M51.7,45.9c-0.2-0.2-0.3-0.5-0.3-0.8c0-1.4,2-3.6,2.7-4.4c0.1-0.1,0.1-0.1,0.2-0.1c0.2,0,0.3,0.2,0.3,0.3
				c0,0.1,0,0.1-0.1,0.2c-0.7,0.6-2.6,2.9-2.6,4c0,0.2,0.1,0.3,0.2,0.4c0.1,0.1,0.3,0.2,0.5,0.2c2.2,0,9-3.7,10.2-4.4
				c0.1,0,0.2-0.1,0.2-0.1c0.1,0,0.1,0,0.1,0.1l0.1,0.1c0,0.1-0.1,0.1-0.2,0.2c-0.3,0.2-7.6,4.6-10.4,4.6
				C52.2,46.2,51.8,46.1,51.7,45.9z M55.9,39.4v-0.1c0.2-0.7,1-1.6,1.7-1.6h0.1c0.2,0,0.3,0.2,0.3,0.3s-0.1,0.3-0.3,0.3h-0.1
				c-0.4,0-1.1,0.7-1.3,1.2c-0.1,0.2-0.2,0.2-0.2,0.2C55.9,39.6,55.9,39.5,55.9,39.4z"/>
			<linearGradient id="SVGID_4_" gradientUnits="userSpaceOnUse" x1="32.0275" y1="27.5165" x2="160.6819" y2="108.5632">
				<stop  offset="0" style="stop-color:#DBA73C"/>
				<stop  offset="0.16" style="stop-color:#D89D39"/>
				<stop  offset="0.54" style="stop-color:#F2F2B8"/>
				<stop  offset="0.56" style="stop-color:#F5EB98"/>
				<stop  offset="0.69" style="stop-color:#D4B667"/>
				<stop  offset="0.85" style="stop-color:#CFAA5B"/>
				<stop  offset="1" style="stop-color:#DFC67D"/>
			</linearGradient>
			<path class="st4" d="M52.6,46.4c-0.5,0-0.8-0.1-1-0.3l0,0c-0.2-0.2-0.3-0.5-0.3-0.8c0-1.5,2.1-3.8,2.7-4.5c0.3-0.3,0.7,0,0.7,0.3
				c0,0.1,0,0.2-0.1,0.3C53.8,42,52,44.2,52,45.2c0,0.1,0,0.2,0.1,0.3c0.1,0.1,0.3,0.1,0.4,0.1c2.1,0,8.9-3.6,10.1-4.4
				c0.1,0,0.1,0,0.1,0c0.1,0,0.1,0,0.1,0c0.1,0,0.2,0.1,0.2,0.1l0.1,0.2c0,0.1-0.1,0.2-0.2,0.3C63,41.8,55.5,46.4,52.6,46.4z
				 M51.7,45.9c0.2,0.2,0.4,0.2,0.8,0.2c2.7,0,9.9-4.2,10.4-4.5c0.1,0,0.1-0.1,0.1-0.1l0-0.1c0,0,0,0-0.1,0c0,0-0.1,0-0.1,0
				c-1.2,0.7-8,4.4-10.2,4.4c-0.2,0-0.5-0.1-0.6-0.2c-0.1-0.1-0.2-0.3-0.2-0.5c0-1.2,2.1-3.5,2.6-4.1c0,0,0.1-0.1,0.1-0.1
				c0-0.1-0.1-0.2-0.2-0.2c0,0-0.1,0-0.1,0.1c-0.4,0.5-2.7,2.9-2.7,4.3C51.5,45.5,51.6,45.7,51.7,45.9z M56,39.7
				c-0.1,0-0.3,0-0.3-0.3l0-0.2c0.2-0.7,1-1.7,1.9-1.7h0.1c0.2,0,0.4,0.2,0.4,0.4c0,0.2-0.2,0.4-0.4,0.4h-0.1c-0.4,0-1,0.6-1.2,1.1
				C56.3,39.6,56.1,39.7,56,39.7z M56,39.3v0.1c0,0.1,0,0.1,0,0.1c0,0,0.1,0,0.1-0.2c0.2-0.4,0.9-1.2,1.4-1.2h0.1
				c0.1,0,0.2-0.1,0.2-0.2c0-0.1,0-0.2-0.1-0.2h-0.1C56.9,37.8,56.2,38.6,56,39.3z"/>
		</g>
		<g>
			<linearGradient id="SVGID_5_" gradientUnits="userSpaceOnUse" x1="35.249" y1="22.4027" x2="163.9034" y2="103.4493">
				<stop  offset="0" style="stop-color:#DBA73C"/>
				<stop  offset="0.16" style="stop-color:#D89D39"/>
				<stop  offset="0.54" style="stop-color:#F2F2B8"/>
				<stop  offset="0.56" style="stop-color:#F5EB98"/>
				<stop  offset="0.69" style="stop-color:#D4B667"/>
				<stop  offset="0.85" style="stop-color:#CFAA5B"/>
				<stop  offset="1" style="stop-color:#DFC67D"/>
			</linearGradient>
			<path class="st5" d="M64.3,46.3c-0.3-0.2-0.4-0.5-0.4-0.9c0-1.2,1.5-3.1,1.5-3.8c0-0.1,0-0.2-0.1-0.3l-0.6-0.7
				c-0.4,0.3-1,0.6-1.6,1c-0.3,0.2-0.3-0.1-0.3-0.1c0-0.1,0.1-0.2,0.2-0.2c0.7-0.4,1.1-0.9,1.6-1.2V40c0-0.6,1-1.3,1.4-1.3
				c0.2,0,0.3,0.1,0.3,0.3c0,0.2-0.1,0.4-0.3,0.5c-0.2,0.2-0.4,0.4-0.8,0.8l0.7,0.8c0.1,0.1,0.1,0.3,0.1,0.5c0,1.1-1.5,3-1.5,3.9
				c0,0.2,0.1,0.3,0.2,0.4c0.1,0.1,0.2,0.1,0.3,0.1c1.8,0,7.8-3.8,8.9-4.5c0.1,0,0.1-0.1,0.2-0.1c0.1,0,0.1,0,0.2,0.1
				c0.1,0.1,0.1,0.2-0.1,0.3c-1.4,0.9-7,4.7-9.2,4.7C64.6,46.4,64.4,46.4,64.3,46.3z"/>
			<linearGradient id="SVGID_6_" gradientUnits="userSpaceOnUse" x1="35.2489" y1="22.4027" x2="163.9034" y2="103.4493">
				<stop  offset="0" style="stop-color:#DBA73C"/>
				<stop  offset="0.16" style="stop-color:#D89D39"/>
				<stop  offset="0.54" style="stop-color:#F2F2B8"/>
				<stop  offset="0.56" style="stop-color:#F5EB98"/>
				<stop  offset="0.69" style="stop-color:#D4B667"/>
				<stop  offset="0.85" style="stop-color:#CFAA5B"/>
				<stop  offset="1" style="stop-color:#DFC67D"/>
			</linearGradient>
			<path class="st6" d="M64.8,46.5c-0.3,0-0.5,0-0.6-0.1l0,0h0c-0.3-0.2-0.5-0.5-0.5-1c0-0.7,0.5-1.6,0.9-2.4
				c0.3-0.6,0.6-1.2,0.6-1.5c0-0.1,0-0.1,0-0.2l-0.5-0.6c-0.2,0.1-0.4,0.3-0.7,0.4c-0.3,0.2-0.6,0.3-0.9,0.6c-0.2,0.1-0.3,0.1-0.4,0
				c-0.1-0.1-0.1-0.2-0.1-0.3c0-0.1,0.1-0.3,0.2-0.3c0.5-0.3,0.9-0.7,1.2-0.9c0.1-0.1,0.2-0.1,0.3-0.2v0c0-0.7,1.1-1.4,1.5-1.4
				c0.3,0,0.4,0.2,0.4,0.4c0,0.2-0.2,0.5-0.3,0.6c-0.2,0.2-0.4,0.4-0.7,0.7l0.6,0.7c0.1,0.1,0.2,0.3,0.2,0.6c0,0.6-0.4,1.4-0.8,2.2
				c-0.4,0.7-0.7,1.3-0.7,1.7c0,0.1,0,0.2,0.2,0.3c0.1,0,0.2,0.1,0.3,0.1c1.1,0,4-1.5,8.6-4.4l0.3-0.2c0.1,0,0.2-0.1,0.3-0.1
				c0.1,0,0.2,0,0.3,0.1c0,0.1,0.1,0.1,0.1,0.2c0,0.1-0.1,0.2-0.2,0.3l-0.2,0.2C72.2,43.1,67,46.5,64.8,46.5z M64.7,40.4l0.7,0.8
				c0,0,0.1,0.2,0.1,0.3c0,0.4-0.3,1-0.7,1.6c-0.4,0.8-0.9,1.6-0.9,2.2c0,0.2,0.1,0.6,0.4,0.7h0c0.1,0.1,0.3,0.1,0.5,0.1
				c2.1,0,7.2-3.4,8.9-4.5l0.2-0.2c0,0,0.1-0.1,0.1-0.1c0,0,0,0,0,0l0,0c0,0,0,0,0,0c0,0-0.1,0-0.1,0l-0.2,0.2
				c-1.7,1.1-6.9,4.4-8.7,4.4c-0.2,0-0.3,0-0.4-0.1c-0.2-0.1-0.3-0.3-0.3-0.5c0-0.5,0.4-1.1,0.7-1.8c0.4-0.7,0.8-1.5,0.8-2
				c0-0.2,0-0.3-0.1-0.4l-0.7-0.8l0.1-0.1c0.3-0.3,0.6-0.5,0.8-0.7c0.1-0.2,0.2-0.4,0.2-0.5c0-0.1-0.1-0.1-0.2-0.1
				c-0.4,0-1.3,0.6-1.3,1.2v0.2l0,0c-0.1,0.1-0.2,0.2-0.3,0.3c-0.4,0.3-0.8,0.6-1.3,0.9c-0.1,0-0.1,0.1-0.1,0.1c0,0,0,0,0,0
				c0,0,0.1,0,0.2,0c0.3-0.2,0.6-0.4,0.9-0.6C64.1,40.8,64.4,40.6,64.7,40.4L64.7,40.4z"/>
		</g>
		<g>
			<linearGradient id="SVGID_7_" gradientUnits="userSpaceOnUse" x1="41.5232" y1="12.4429" x2="170.1777" y2="93.4895">
				<stop  offset="0" style="stop-color:#DBA73C"/>
				<stop  offset="0.16" style="stop-color:#D89D39"/>
				<stop  offset="0.54" style="stop-color:#F2F2B8"/>
				<stop  offset="0.56" style="stop-color:#F5EB98"/>
				<stop  offset="0.69" style="stop-color:#D4B667"/>
				<stop  offset="0.85" style="stop-color:#CFAA5B"/>
				<stop  offset="1" style="stop-color:#DFC67D"/>
			</linearGradient>
			<path class="st7" d="M73.1,44.1c0-2.8,3.4-7.4,4.1-8.3c1.3-1.7,6.6-7.8,9.3-7.8c0.6,0,1.1,0.3,1.1,0.9c0,2.6-12.1,11.8-13.3,12.8
				l0,0c-0.3,0.6-0.6,1.6-0.6,2.5c0,1,0.6,1.6,1.8,1.6c2.7,0,8.3-2.8,10.7-4.3c0.1-0.1,0.2-0.1,0.2-0.1c0.1,0,0.2,0.1,0.2,0.2
				s-0.1,0.2-0.2,0.2c-2.6,1.7-7.9,4.6-10.9,4.6C73.9,46.3,73.1,45.5,73.1,44.1z M87,28.9c0-0.3-0.3-0.3-0.6-0.3
				c-2.4,0-7.7,6-8.8,7.5c-1.3,1.7-2.2,3.2-2.9,4.5C78,38.1,87,30.8,87,28.9z"/>
			<linearGradient id="SVGID_8_" gradientUnits="userSpaceOnUse" x1="41.524" y1="12.4415" x2="170.1785" y2="93.4882">
				<stop  offset="0" style="stop-color:#DBA73C"/>
				<stop  offset="0.16" style="stop-color:#D89D39"/>
				<stop  offset="0.54" style="stop-color:#F2F2B8"/>
				<stop  offset="0.56" style="stop-color:#F5EB98"/>
				<stop  offset="0.69" style="stop-color:#D4B667"/>
				<stop  offset="0.85" style="stop-color:#CFAA5B"/>
				<stop  offset="1" style="stop-color:#DFC67D"/>
			</linearGradient>
			<path class="st8" d="M75.5,46.4c-1.6,0-2.5-0.8-2.5-2.3c0-3,3.7-7.9,4.2-8.4c1.2-1.5,6.5-7.8,9.4-7.8c0.7,0,1.2,0.4,1.2,1
				c0,1.7-4.3,5.9-12.9,12.5c-0.2,0.2-0.3,0.3-0.4,0.3l0,0c-0.2,0.3-0.6,1.5-0.6,2.4c0,1,0.6,1.4,1.7,1.4c2.7,0,8.2-2.8,10.6-4.3
				c0.1-0.1,0.2-0.1,0.3-0.1c0.2,0,0.3,0.1,0.3,0.3c0,0.2-0.1,0.3-0.2,0.3C84,43.4,78.6,46.4,75.5,46.4z M86.5,28.1
				c-2.6,0-7.7,5.6-9.2,7.7c-0.4,0.5-4.1,5.4-4.1,8.3c0,1.3,0.8,2,2.3,2c3,0,8.4-3,10.8-4.6c0.1-0.1,0.1-0.1,0.1-0.1c0,0,0,0-0.1,0
				c0,0-0.1,0-0.2,0.1c-2.4,1.5-8,4.4-10.8,4.4c-1.2,0-1.9-0.6-1.9-1.7c0-1,0.5-2.2,0.6-2.5l0.1-0.1c0.1-0.1,0.2-0.2,0.4-0.4
				c11.1-8.6,12.8-11.4,12.8-12.3C87.5,28.3,87,28.1,86.5,28.1z M74.4,41l0.3-0.5c0.7-1.4,1.7-2.9,2.9-4.5c1.2-1.6,6.5-7.5,8.9-7.5
				c0.6,0,0.7,0.3,0.7,0.5c0,2.1-11.1,10.8-12.3,11.8L74.4,41z M86.5,28.7c-2.3,0-7.6,5.9-8.7,7.4c-1.1,1.4-1.9,2.7-2.6,4
				c4.3-3.4,11.8-9.6,11.8-11.2C86.9,28.9,86.9,28.7,86.5,28.7z"/>
		</g>
		<g>
			<linearGradient id="SVGID_9_" gradientUnits="userSpaceOnUse" x1="36.0785" y1="21.0859" x2="164.7329" y2="102.1326">
				<stop  offset="0" style="stop-color:#DBA73C"/>
				<stop  offset="0.16" style="stop-color:#D89D39"/>
				<stop  offset="0.54" style="stop-color:#F2F2B8"/>
				<stop  offset="0.56" style="stop-color:#F5EB98"/>
				<stop  offset="0.69" style="stop-color:#D4B667"/>
				<stop  offset="0.85" style="stop-color:#CFAA5B"/>
				<stop  offset="1" style="stop-color:#DFC67D"/>
			</linearGradient>
			<path class="st9" d="M75.1,59.7c-0.3-0.2-0.3-0.5-0.3-0.8c0-0.8,0.5-1.9,1.1-2.8c2.2-3.5,6-6.4,9.9-7.6c1.3-1.9,2.5-3.8,3.3-5.1
				c-0.7,0.7-2.8,2.7-4.1,2.7c-0.2,0-0.4-0.1-0.6-0.2c-0.2-0.2-0.3-0.4-0.3-0.7c0-1.1,1.3-2.9,2.4-4.2c0.1-0.1,0.2-0.1,0.2-0.1
				c0.2,0,0.3,0.1,0.3,0.3l-0.1,0.2c-1.3,1.6-2.3,3.1-2.3,3.9v0.2c0,0.2,0.2,0.2,0.3,0.2c0.4,0,1.3-0.5,1.8-0.9
				c1.4-1.1,2.9-2.7,3.4-3.3c0.1-0.1,0.1-0.1,0.2-0.1c0.2,0,0.3,0.1,0.3,0.3l0,0.1c-0.5,1-2.1,3.7-4.1,6.7c0.5-0.1,2.2-0.4,4.1-0.4
				c1.6,0,3.3,0.2,4.6,0.9c0,0,0.1,0.1,0.1,0.2l0,0.1c0,0,0,0.1-0.1,0.1l-0.2,0c-1.3-0.5-2.9-0.7-4.4-0.7c-2.2,0-4.2,0.4-4.5,0.6
				c-1.2,1.7-7.4,10.9-10.3,10.9C75.5,59.9,75.3,59.8,75.1,59.7z M85.2,49.3c-3.6,1.3-7,3.9-9,7.2c-0.4,0.7-0.9,1.7-0.9,2.2
				c0,0.2,0.1,0.3,0.2,0.4c0.1,0,0.2,0.1,0.3,0.1C78.2,59.2,84,51,85.2,49.3z"/>
			<linearGradient id="SVGID_10_" gradientUnits="userSpaceOnUse" x1="36.0782" y1="21.0863" x2="164.7327" y2="102.1329">
				<stop  offset="0" style="stop-color:#DBA73C"/>
				<stop  offset="0.16" style="stop-color:#D89D39"/>
				<stop  offset="0.54" style="stop-color:#F2F2B8"/>
				<stop  offset="0.56" style="stop-color:#F5EB98"/>
				<stop  offset="0.69" style="stop-color:#D4B667"/>
				<stop  offset="0.85" style="stop-color:#CFAA5B"/>
				<stop  offset="1" style="stop-color:#DFC67D"/>
			</linearGradient>
			<path class="st10" d="M75.8,60c-0.3,0-0.5-0.1-0.7-0.2l0,0c-0.3-0.2-0.4-0.5-0.4-0.9c0-0.9,0.7-2.2,1.1-2.8
				c2.1-3.4,6-6.4,9.9-7.6c1.1-1.6,2-3.1,2.8-4.3c-1.2,1.1-2.5,2.1-3.5,2.1c-0.2,0-0.5-0.1-0.6-0.2c-0.2-0.2-0.3-0.5-0.3-0.8
				c0-1.2,1.3-3,2.4-4.3c0.1-0.1,0.2-0.2,0.3-0.2c0.2,0,0.4,0.2,0.4,0.4l0,0L87,41.4c-1.4,1.7-2.2,3.1-2.2,3.8v0.2
				c0,0,0,0.1,0.2,0.1c0.4,0,1.1-0.5,1.7-0.9c1.3-1,2.8-2.6,3.4-3.3c0.1-0.1,0.2-0.1,0.3-0.1c0.2,0,0.4,0.2,0.4,0.4l0,0.2
				c-0.5,1-2,3.5-3.9,6.5c0.7-0.1,2.1-0.3,3.8-0.3c2,0,3.6,0.3,4.7,0.9l0,0c0.1,0,0.2,0.1,0.2,0.2l0,0.1l0,0c0,0.1-0.1,0.1-0.2,0.1
				l-0.2,0c-1.5-0.6-3.2-0.7-4.4-0.7c-2.1,0-4.1,0.4-4.4,0.6l-0.1,0.1C81.3,56.3,77.7,60,75.8,60z M75.2,59.6
				c0.2,0.1,0.4,0.2,0.6,0.2c1,0,3.7-1.4,10.1-10.7l0.1-0.2c0.4-0.2,2.4-0.6,4.6-0.6c1.2,0,3,0.1,4.5,0.7l0.1,0l0,0c0,0,0,0,0,0
				c0,0,0,0,0,0c-1.1-0.6-2.6-0.9-4.6-0.9c-2,0-3.6,0.3-4.1,0.4l-0.3,0.1l0.2-0.3c2.1-3.1,3.6-5.7,4.1-6.7l0-0.1
				c0,0-0.1-0.1-0.2-0.1c0,0-0.1,0-0.1,0.1c-0.4,0.5-1.9,2.2-3.4,3.3c-0.5,0.4-1.4,0.9-1.8,0.9c-0.2,0-0.4-0.1-0.4-0.3l0-0.2
				c0-1,1.6-3.1,2.3-3.9l0-0.1c0-0.1-0.1-0.1-0.2-0.1c0,0-0.1,0-0.1,0.1c-1.5,1.8-2.4,3.3-2.4,4.2c0,0.3,0.1,0.5,0.2,0.6
				c0.7,0.5,2.3-0.4,4.5-2.6l0.7-0.7l-0.5,0.9c-0.7,1.2-1.9,3.1-3.3,5.1l0,0l0,0c-3.9,1.2-7.7,4.1-9.8,7.5c-0.4,0.6-1.1,1.8-1.1,2.7
				C74.9,59.2,75,59.4,75.2,59.6z M75.9,59.4c-0.1,0-0.2,0-0.4-0.1c-0.2-0.1-0.3-0.3-0.3-0.5c0-0.6,0.5-1.6,0.9-2.3
				c2-3.2,5.4-5.9,9.1-7.3l0.4-0.1l-0.2,0.3C82.7,53.1,78,59.4,75.9,59.4z M84.9,49.6c-3.5,1.4-6.7,4-8.6,7
				c-0.4,0.7-0.9,1.6-0.9,2.2c0,0.1,0,0.3,0.1,0.3c0.1,0,0.2,0,0.3,0C77.3,59.1,80.6,55.6,84.9,49.6z"/>
		</g>
		<g>
			<linearGradient id="SVGID_11_" gradientUnits="userSpaceOnUse" x1="51.1858" y1="-2.8956" x2="179.8402" y2="78.151">
				<stop  offset="0" style="stop-color:#DBA73C"/>
				<stop  offset="0.16" style="stop-color:#D89D39"/>
				<stop  offset="0.54" style="stop-color:#F2F2B8"/>
				<stop  offset="0.56" style="stop-color:#F5EB98"/>
				<stop  offset="0.69" style="stop-color:#D4B667"/>
				<stop  offset="0.85" style="stop-color:#CFAA5B"/>
				<stop  offset="1" style="stop-color:#DFC67D"/>
			</linearGradient>
			<path class="st11" d="M101.2,52l0-0.1c1.8-3.5,2.3-6,2.3-7.8c0-1.3-0.3-2.3-0.5-3c-0.1-0.4-0.3-0.9-0.3-1.4c0-0.1,0-0.2,0-0.3
				c0.4-1.4,4-1.8,8.4-1.9c3.7-4.7,7.4-9.1,10.7-12.3c0.1-0.1,0.1-0.1,0.2-0.1c0.2,0,0.3,0.1,0.3,0.3c0,0.1,0,0.1-0.1,0.2
				c-3.2,3.1-6.8,7.3-10.4,11.9h0.7c2.9,0,6.6,0.2,9.4,0.4c3-4.6,6.7-8.9,10.4-12.9c0.1-0.1,0.1-0.1,0.2-0.1c0.1,0,0.3,0.2,0.3,0.3
				c0,0.1,0,0.1-0.1,0.2c-4.3,4.7-7.7,8.9-10.1,12.6c1.6,0.1,2.8,0.3,3.2,0.4c0.1,0,0.2,0.2,0.2,0.3c0,0.1-0.1,0.3-0.3,0.3l-0.1,0
				c-0.6-0.1-1.8-0.3-3.4-0.4c-1.4,2.1-4.7,7.6-4.7,10.6c0,0.4,0.1,0.8,0.2,1.1l0,0.2c0,0.1-0.1,0.2-0.2,0.2c-0.1,0-0.2-0.1-0.3-0.2
				c-0.2-0.4-0.3-0.9-0.3-1.4c0-3.2,3.1-8.4,4.5-10.6c-2.8-0.2-6.5-0.4-9.5-0.4h-0.7c-3.5,4.5-6.9,9.5-9.8,14.2
				c-0.1,0.1-0.1,0.2-0.2,0.2C101.3,52.3,101.2,52.2,101.2,52z M110.8,38c-1.3,0-6.9,0-7.5,1.5l0,0.3c0,0.8,0.8,2,0.8,4.3
				c0,1.3-0.3,2.9-0.9,4.9C105.5,45.2,108.1,41.5,110.8,38z"/>
			<linearGradient id="SVGID_12_" gradientUnits="userSpaceOnUse" x1="51.1857" y1="-2.8956" x2="179.8402" y2="78.1511">
				<stop  offset="0" style="stop-color:#DBA73C"/>
				<stop  offset="0.16" style="stop-color:#D89D39"/>
				<stop  offset="0.54" style="stop-color:#F2F2B8"/>
				<stop  offset="0.56" style="stop-color:#F5EB98"/>
				<stop  offset="0.69" style="stop-color:#D4B667"/>
				<stop  offset="0.85" style="stop-color:#CFAA5B"/>
				<stop  offset="1" style="stop-color:#DFC67D"/>
			</linearGradient>
			<path class="st12" d="M101.4,52.4c-0.2,0-0.4-0.2-0.4-0.4l0,0l0-0.1c1.5-3,2.3-5.6,2.3-7.8c0-1.2-0.2-2-0.4-2.7l-0.1-0.4
				c-0.1-0.4-0.2-0.8-0.2-1.2c0-0.1,0-0.2,0-0.4c0.4-1.2,3.2-1.9,8.5-2c3.8-5,7.6-9.2,10.7-12.3c0.3-0.3,0.7,0,0.7,0.3
				c0,0.1,0,0.2-0.1,0.3c-3.1,2.9-6.6,7-10.2,11.7h0.4c3.4,0,7.6,0.3,9.3,0.4c2.6-3.9,6-8.1,10.3-12.8c0.1-0.1,0.2-0.1,0.3-0.1
				c0.2,0,0.4,0.2,0.4,0.4c0,0.1,0,0.2-0.1,0.3c-4,4.4-7.4,8.5-9.9,12.4c1.4,0.1,2.6,0.3,3.1,0.4c0.2,0,0.3,0.2,0.3,0.4
				c0,0.2-0.1,0.4-0.4,0.4l-0.2,0c-0.5-0.1-1.5-0.2-3.3-0.4c-0.6,1-4.6,7.2-4.6,10.4c0,0.4,0.1,0.8,0.2,1.1l0,0l0,0.2
				c0,0.2-0.1,0.4-0.3,0.4c-0.1,0-0.3-0.1-0.4-0.3c-0.2-0.4-0.3-0.9-0.3-1.4c0-3.2,3-8.3,4.4-10.5c-2.6-0.2-6.2-0.4-9.3-0.4h-0.6
				c-3.5,4.6-6.9,9.4-9.8,14.1C101.7,52.3,101.6,52.4,101.4,52.4z M101.3,52c0,0.1,0.1,0.2,0.2,0.2c0,0,0.1,0,0.1-0.1
				c2.9-4.7,6.3-9.6,9.8-14.2l0,0h0.8c3.1,0,6.9,0.2,9.5,0.4l0.2,0l-0.1,0.2c-1.3,2.1-4.5,7.3-4.5,10.5c0,0.5,0.1,0.9,0.3,1.3
				c0,0.1,0.1,0.1,0.1,0.1c0,0,0.1,0,0.1-0.1l0-0.1c-0.2-0.3-0.2-0.7-0.2-1.2c0-3.3,3.9-9.4,4.7-10.6l0-0.1l0.1,0
				c1.8,0.1,2.9,0.3,3.4,0.4l0.1,0c0.1,0,0.1-0.1,0.1-0.1c0-0.1-0.1-0.1-0.1-0.2c-0.5-0.1-1.7-0.3-3.2-0.4l-0.2,0l0.1-0.2
				c2.6-3.9,6-8.1,10.1-12.6c0,0,0.1-0.1,0.1-0.1c0-0.1-0.1-0.2-0.2-0.2c0,0-0.1,0-0.1,0.1c-4.4,4.7-7.8,8.9-10.3,12.9l0,0.1l-0.1,0
				c-1.7-0.1-5.9-0.4-9.4-0.4h-0.9l0.2-0.2c3.7-4.8,7.3-8.9,10.4-11.9c0,0,0.1-0.1,0.1-0.1c0-0.1-0.1-0.2-0.2-0.2c0,0-0.1,0-0.1,0.1
				c-3.2,3-6.9,7.3-10.7,12.3l0,0l-0.1,0c-5.1,0.1-7.9,0.7-8.3,1.8c0,0.1,0,0.2,0,0.3c0,0.4,0.1,0.8,0.2,1.2l0.1,0.4
				c0.2,0.7,0.4,1.6,0.4,2.8C103.6,46.2,102.8,48.9,101.3,52L101.3,52z M102.6,49.8l0.3-1c0.6-1.8,0.9-3.4,0.9-4.8
				c0-1.4-0.3-2.4-0.5-3.2c-0.1-0.5-0.2-0.8-0.2-1.1l0-0.3c0.5-1.4,4.1-1.6,7.2-1.6c0.2,0,0.3,0,0.4,0l0.3,0l-0.2,0.2
				c-2.6,3.5-5.2,7.1-7.7,10.9L102.6,49.8z M110.5,38.1c0,0-0.1,0-0.2,0c-1.6,0-6.5,0.1-6.9,1.4l0,0.2c0,0.3,0.1,0.6,0.2,1
				c0.2,0.8,0.5,1.8,0.5,3.2c0,1.2-0.2,2.5-0.7,4C105.7,44.6,108.1,41.3,110.5,38.1z"/>
		</g>
		<g>
			<linearGradient id="SVGID_13_" gradientUnits="userSpaceOnUse" x1="52.3817" y1="-4.7941" x2="181.0362" y2="76.2526">
				<stop  offset="0" style="stop-color:#DBA73C"/>
				<stop  offset="0.16" style="stop-color:#D89D39"/>
				<stop  offset="0.54" style="stop-color:#F2F2B8"/>
				<stop  offset="0.56" style="stop-color:#F5EB98"/>
				<stop  offset="0.69" style="stop-color:#D4B667"/>
				<stop  offset="0.85" style="stop-color:#CFAA5B"/>
				<stop  offset="1" style="stop-color:#DFC67D"/>
			</linearGradient>
			<path class="st13" d="M123.7,45.9c-0.4-0.3-0.6-0.7-0.6-1.1c0-0.2,0-0.3,0.1-0.5c0.3-1.7,1.7-3.1,3.2-3.8
				c0.4-0.2,0.9-0.3,1.3-0.3c0.3,0,0.6,0.1,0.8,0.4c0,0.1,0.1,0.2,0.1,0.3c0,0.8-1.3,1.4-2.3,1.4c-0.4,0-0.8-0.1-1.1-0.3
				c-0.7,0.7-1.5,1.9-1.5,2.8c0,0.3,0.1,0.6,0.3,0.8c0.2,0.2,0.5,0.3,0.9,0.3h0.1c2.7,0,9.3-4.4,9.4-4.4c0.1,0,0.1,0,0.2,0.1
				c0,0,0.1,0.1,0.1,0.1s0,0.1-0.2,0.2c-1.6,1-6.9,4.6-9.7,4.6C124.4,46.2,124.1,46.1,123.7,45.9z M128.1,40.8
				c-0.1-0.2-0.1-0.3-0.4-0.3c-0.6,0-1.8,0.8-2,0.9c0.2,0.1,0.4,0.2,0.6,0.2C127.1,41.7,128.1,41.2,128.1,40.8z"/>
			<linearGradient id="SVGID_14_" gradientUnits="userSpaceOnUse" x1="52.3817" y1="-4.7941" x2="181.0362" y2="76.2526">
				<stop  offset="0" style="stop-color:#DBA73C"/>
				<stop  offset="0.16" style="stop-color:#D89D39"/>
				<stop  offset="0.54" style="stop-color:#F2F2B8"/>
				<stop  offset="0.56" style="stop-color:#F5EB98"/>
				<stop  offset="0.69" style="stop-color:#D4B667"/>
				<stop  offset="0.85" style="stop-color:#CFAA5B"/>
				<stop  offset="1" style="stop-color:#DFC67D"/>
			</linearGradient>
			<path class="st14" d="M124.9,46.4c-0.5,0-0.9-0.1-1.2-0.4l0,0c-0.4-0.3-0.6-0.7-0.6-1.2c0-0.1,0-0.3,0.1-0.4l0-0.1
				c0.3-1.6,1.6-3.1,3.3-3.9c0.3-0.1,0.9-0.4,1.4-0.4c0.5,0,0.7,0.2,0.9,0.5c0,0.1,0.1,0.2,0.1,0.4c0,0.8-1.4,1.6-2.5,1.6
				c-0.4,0-0.8-0.1-1.1-0.3c-0.7,0.7-1.4,1.8-1.4,2.6c0,0.2,0.1,0.5,0.3,0.7c0.2,0.2,0.4,0.2,0.8,0.2h0.1c2.1,0,6.8-2.9,8.6-4
				c0.7-0.4,0.8-0.5,0.8-0.5c0.1,0,0.2,0,0.2,0.1c0,0,0.1,0.1,0.1,0.2c0,0.1-0.1,0.2-0.2,0.3l-0.3,0.2
				C132.5,43.2,127.6,46.4,124.9,46.4z M127.8,40.2c-0.3,0-0.8,0.1-1.3,0.3c-1.3,0.6-2.8,2-3.2,3.7l0,0.1c0,0.1,0,0.3,0,0.4
				c0,0.4,0.2,0.8,0.5,1l0,0c0.3,0.2,0.7,0.3,1.1,0.3c2.6,0,7.5-3.1,9.3-4.3l0.3-0.2c0.1,0,0.1-0.1,0.1-0.1c0,0,0,0,0,0
				c0,0,0,0-0.1,0c-0.1,0-0.4,0.2-0.7,0.4c-1.8,1.1-6.5,4-8.7,4H125c-0.5,0-0.8-0.1-1-0.3c-0.2-0.2-0.4-0.5-0.4-0.9
				c0-0.9,0.8-2.1,1.5-2.9l0.1-0.1l0.1,0.1c0.2,0.2,0.6,0.3,1,0.3c1.1,0,2.2-0.7,2.2-1.3c0-0.1,0-0.2-0.1-0.3
				C128.4,40.3,128.2,40.2,127.8,40.2z M126.3,41.9c-0.3,0-0.5-0.1-0.7-0.2l-0.1-0.1l0.1-0.1c0.2-0.2,1.5-1,2.1-1
				c0.3,0,0.4,0.1,0.5,0.3l0,0C128.2,41.3,127.1,41.9,126.3,41.9z M125.9,41.5c0.1,0,0.2,0.1,0.4,0.1c0.7,0,1.6-0.5,1.7-0.7
				c0-0.1-0.1-0.1-0.2-0.1C127.2,40.7,126.3,41.3,125.9,41.5z"/>
		</g>
		<g>
			<linearGradient id="SVGID_15_" gradientUnits="userSpaceOnUse" x1="55.2407" y1="-9.3325" x2="183.8952" y2="71.7142">
				<stop  offset="0" style="stop-color:#DBA73C"/>
				<stop  offset="0.16" style="stop-color:#D89D39"/>
				<stop  offset="0.54" style="stop-color:#F2F2B8"/>
				<stop  offset="0.56" style="stop-color:#F5EB98"/>
				<stop  offset="0.69" style="stop-color:#D4B667"/>
				<stop  offset="0.85" style="stop-color:#CFAA5B"/>
				<stop  offset="1" style="stop-color:#DFC67D"/>
			</linearGradient>
			<path class="st15" d="M137.3,45c0-0.7,0.5-1.7,1.2-2.7c-1.3,1-4.3,3.5-5.9,3.5c-0.6,0-1-0.4-1-0.9c0-1.6,2.8-4.3,4.9-4.3
				c0.6,0,1.1,0.2,1.5,0.7l0.1,0.2c0,0.2-0.1,0.3-0.3,0.3c-0.1,0-0.2,0-0.2-0.1c-0.3-0.3-0.7-0.5-1.2-0.5c-1.8,0-4.3,2.6-4.3,3.7
				c0,0.3,0.2,0.5,0.5,0.5c1.4,0,5.8-3.6,7.1-4.7c0.1,0,0.1-0.1,0.2-0.1c0.1,0,0.3,0.2,0.3,0.3l-0.1,0.2c-1.1,1.6-2.2,3.1-2.2,3.9
				c0,0.3,0.2,0.5,0.5,0.5c1.4,0,6.2-3.1,7.6-4.1c0.1-0.1,0.2-0.1,0.2-0.1c0,0,0.2,0.1,0.2,0.2c0,0.1,0,0.1-0.1,0.2
				c-1.5,1-6.2,4.3-8.1,4.3C137.6,45.9,137.3,45.5,137.3,45z"/>
			<linearGradient id="SVGID_16_" gradientUnits="userSpaceOnUse" x1="55.2402" y1="-9.3316" x2="183.8946" y2="71.715">
				<stop  offset="0" style="stop-color:#DBA73C"/>
				<stop  offset="0.16" style="stop-color:#D89D39"/>
				<stop  offset="0.54" style="stop-color:#F2F2B8"/>
				<stop  offset="0.56" style="stop-color:#F5EB98"/>
				<stop  offset="0.69" style="stop-color:#D4B667"/>
				<stop  offset="0.85" style="stop-color:#CFAA5B"/>
				<stop  offset="1" style="stop-color:#DFC67D"/>
			</linearGradient>
			<path class="st16" d="M138.2,46c-0.6,0-1-0.4-1-1c0-0.5,0.2-1.2,0.8-2.1c-2.6,2.1-4.4,3.1-5.4,3.1c-0.6,0-1.1-0.4-1.1-1.1
				c0-1.7,2.8-4.4,5-4.4c0.6,0,1.2,0.3,1.6,0.7l0,0l0.1,0.2c0,0.1,0,0.1-0.1,0.2c0.5-0.4,1-0.8,1.4-1.2c0.1-0.1,0.2-0.1,0.3-0.1
				c0.2,0,0.4,0.2,0.4,0.4l0,0l-0.1,0.2l-0.4,0.5c-1,1.4-1.9,2.7-1.9,3.4c0,0.2,0,0.4,0.3,0.4c1.4,0,5.9-3,7.6-4.1
				c0.1-0.1,0.2-0.1,0.3-0.1c0.1,0,0.3,0.2,0.3,0.3c0,0.1,0,0.2-0.1,0.3C144,43.4,140,46,138.2,46z M139.1,41.7l-0.5,0.7
				c-0.5,0.8-1.1,1.8-1.1,2.6c0,0.5,0.3,0.8,0.7,0.8c1.8,0,6.2-3,8-4.2c0,0,0-0.1,0-0.1c0,0,0,0-0.1-0.1c0,0-0.1,0-0.1,0
				c-0.1,0-6,4.1-7.7,4.1c-0.4,0-0.6-0.3-0.6-0.7c0-0.8,0.9-2.1,1.9-3.5l0.3-0.5l0-0.1c0-0.1-0.1-0.1-0.2-0.1c0,0-0.1,0-0.1,0
				c-1.3,1.1-5.6,4.7-7.1,4.7c-0.3,0-0.6-0.3-0.6-0.6c0-1.2,2.6-3.8,4.4-3.8c0.5,0,0.9,0.2,1.3,0.5c0.1,0.1,0.1,0.1,0.1,0.1
				c0.1,0,0.1-0.1,0.2-0.1l0-0.1c-0.4-0.4-0.9-0.6-1.4-0.6c-2.1,0-4.8,2.6-4.8,4.2c0,0.5,0.3,0.8,0.8,0.8c1.1,0,3-1.2,5.8-3.5
				L139.1,41.7z M136.4,41.3c-1.7,0-4.2,2.5-4.2,3.6c0,0.2,0.2,0.3,0.3,0.3c0.9,0,3.1-1.5,5.4-3.3c0,0-0.1,0-0.1,0
				c-0.1,0-0.2,0-0.3-0.2C137.2,41.4,136.9,41.3,136.4,41.3z"/>
		</g>
		<g>
			<linearGradient id="SVGID_17_" gradientUnits="userSpaceOnUse" x1="58.2308" y1="-14.079" x2="186.8852" y2="66.9677">
				<stop  offset="0" style="stop-color:#DBA73C"/>
				<stop  offset="0.16" style="stop-color:#D89D39"/>
				<stop  offset="0.54" style="stop-color:#F2F2B8"/>
				<stop  offset="0.56" style="stop-color:#F5EB98"/>
				<stop  offset="0.69" style="stop-color:#D4B667"/>
				<stop  offset="0.85" style="stop-color:#CFAA5B"/>
				<stop  offset="1" style="stop-color:#DFC67D"/>
			</linearGradient>
			<path class="st17" d="M144,46.2c-0.2-0.1-0.3-0.3-0.3-0.6c0-1.4,1.9-4.1,2.6-4.6c0,0,0.1-0.1,0.2-0.1c0.2,0,0.3,0.2,0.3,0.3
				c0,0.1-0.1,0.1-0.1,0.2c-1,0.7-2.4,3.2-2.4,4c0,0.1,0,0.2,0.1,0.2c0,0,0.1,0.1,0.2,0.1c0.9,0,4.1-2.6,4.7-3.1
				c0.3-1.1,1.2-1.6,1.6-1.6c0.1,0,0.2,0.1,0.2,0.2c0,0.1-0.1,0.3-0.2,0.5c-0.3,0.5-0.9,1-1.1,1.2c0,0.5,0.3,0.7,0.8,0.7
				c1.5,0,4.7-2,5.3-2.3c0.1-0.1,0.1-0.1,0.2-0.1c0.1,0,0.1,0,0.2,0.1l0,0.1c0,0.1-0.1,0.2-0.1,0.2c-0.7,0.5-3.8,2.5-5.6,2.5
				c-0.6,0-1-0.2-1.2-0.8c-1,0.9-3.6,2.9-4.9,2.9C144.2,46.3,144.1,46.3,144,46.2z"/>
			<linearGradient id="SVGID_18_" gradientUnits="userSpaceOnUse" x1="58.2308" y1="-14.079" x2="186.8852" y2="66.9677">
				<stop  offset="0" style="stop-color:#DBA73C"/>
				<stop  offset="0.16" style="stop-color:#D89D39"/>
				<stop  offset="0.54" style="stop-color:#F2F2B8"/>
				<stop  offset="0.56" style="stop-color:#F5EB98"/>
				<stop  offset="0.69" style="stop-color:#D4B667"/>
				<stop  offset="0.85" style="stop-color:#CFAA5B"/>
				<stop  offset="1" style="stop-color:#DFC67D"/>
			</linearGradient>
			<path class="st18" d="M144.4,46.4c-0.1,0-0.3,0-0.4-0.1c-0.2-0.1-0.3-0.4-0.3-0.7c0-1.4,1.9-4.2,2.6-4.7c0,0,0.1-0.1,0.2-0.1
				c0.2,0,0.4,0.2,0.4,0.4c0,0.1-0.1,0.2-0.2,0.3c-1,0.7-2.4,3.2-2.4,3.9c0,0,0,0.1,0,0.1c0,0,0.1,0,0.1,0c0.8,0,3.8-2.3,4.6-3
				c0.3-1.1,1.2-1.7,1.7-1.7c0.2,0,0.3,0.1,0.3,0.3c0,0.1-0.1,0.4-0.2,0.6c-0.3,0.4-0.8,0.9-1,1.1c0,0.2,0.1,0.5,0.7,0.5
				c0.6,0,2-0.4,5.1-2.2l0.1-0.1c0.1-0.1,0.2-0.1,0.3-0.1c0.1,0,0.2,0,0.3,0.1l0,0.2c0,0.1-0.1,0.3-0.2,0.3c-1.4,0.9-4,2.5-5.7,2.5
				c-0.6,0-1-0.2-1.2-0.7C147.5,44.9,145.4,46.4,144.4,46.4z M146.5,41.1C146.4,41.1,146.4,41.1,146.5,41.1
				c-0.7,0.5-2.6,3.2-2.6,4.5c0,0.2,0.1,0.4,0.2,0.5c0.1,0,0.2,0,0.3,0c0.8,0,2.5-1,4.8-2.9l0.1-0.1l0.1,0.2
				c0.2,0.4,0.5,0.7,1.1,0.7c1.6,0,4.4-1.7,5.5-2.4c0,0,0.1-0.1,0.1-0.1l0,0c0,0,0,0,0,0c0,0-0.1,0-0.1,0l-0.1,0.1
				c-2.5,1.5-4.2,2.2-5.2,2.2c-0.6,0-0.9-0.3-0.9-0.8l0-0.1l0,0c0.2-0.2,0.7-0.7,1.1-1.1c0.1-0.2,0.2-0.4,0.2-0.4
				c0-0.1,0-0.1-0.1-0.1c-0.4,0-1.2,0.5-1.5,1.5l0,0l0,0c-0.5,0.4-3.7,3.1-4.7,3.1c-0.1,0-0.2,0-0.3-0.1c-0.1-0.1-0.1-0.2-0.1-0.3
				c0-0.8,1.4-3.4,2.4-4.1c0,0,0.1-0.1,0.1-0.1C146.6,41.2,146.5,41.1,146.5,41.1z"/>
		</g>
		<g>
			<linearGradient id="SVGID_19_" gradientUnits="userSpaceOnUse" x1="61.0907" y1="-18.6189" x2="189.7452" y2="62.4278">
				<stop  offset="0" style="stop-color:#DBA73C"/>
				<stop  offset="0.16" style="stop-color:#D89D39"/>
				<stop  offset="0.54" style="stop-color:#F2F2B8"/>
				<stop  offset="0.56" style="stop-color:#F5EB98"/>
				<stop  offset="0.69" style="stop-color:#D4B667"/>
				<stop  offset="0.85" style="stop-color:#CFAA5B"/>
				<stop  offset="1" style="stop-color:#DFC67D"/>
			</linearGradient>
			<path class="st19" d="M154.4,45.9c-0.4-0.3-0.6-0.7-0.6-1.1c0-0.2,0-0.3,0.1-0.5c0.3-1.7,1.7-3.1,3.2-3.8
				c0.4-0.2,0.9-0.3,1.3-0.3c0.3,0,0.6,0.1,0.8,0.4c0,0.1,0.1,0.2,0.1,0.3c0,0.8-1.3,1.4-2.3,1.4c-0.4,0-0.8-0.1-1.1-0.3
				c-0.7,0.7-1.5,1.9-1.5,2.8c0,0.3,0.1,0.6,0.3,0.8c0.2,0.2,0.5,0.3,0.9,0.3h0.1c2.7,0,9.3-4.4,9.4-4.4c0.1,0,0.1,0,0.2,0.1
				c0,0,0.1,0.1,0.1,0.1s0,0.1-0.2,0.2c-1.6,1-6.9,4.6-9.7,4.6C155.1,46.2,154.7,46.1,154.4,45.9z M158.7,40.8
				c-0.1-0.2-0.1-0.3-0.4-0.3c-0.6,0-1.8,0.8-2,0.9c0.2,0.1,0.4,0.2,0.6,0.2C157.7,41.7,158.7,41.2,158.7,40.8z"/>
			<linearGradient id="SVGID_20_" gradientUnits="userSpaceOnUse" x1="61.0907" y1="-18.6188" x2="189.7451" y2="62.4279">
				<stop  offset="0" style="stop-color:#DBA73C"/>
				<stop  offset="0.16" style="stop-color:#D89D39"/>
				<stop  offset="0.54" style="stop-color:#F2F2B8"/>
				<stop  offset="0.56" style="stop-color:#F5EB98"/>
				<stop  offset="0.69" style="stop-color:#D4B667"/>
				<stop  offset="0.85" style="stop-color:#CFAA5B"/>
				<stop  offset="1" style="stop-color:#DFC67D"/>
			</linearGradient>
			<path class="st20" d="M155.6,46.4c-0.5,0-0.9-0.1-1.2-0.4c-0.4-0.3-0.6-0.7-0.6-1.2c0-0.1,0-0.3,0-0.4l0-0.1
				c0.3-1.6,1.6-3.1,3.3-3.9c0.3-0.1,0.9-0.4,1.4-0.4c0.5,0,0.7,0.2,0.9,0.5c0,0.1,0.1,0.2,0.1,0.4c0,0.8-1.4,1.6-2.5,1.6
				c-0.4,0-0.8-0.1-1.1-0.3c-0.7,0.7-1.4,1.8-1.4,2.6c0,0.2,0.1,0.5,0.3,0.7c0.2,0.2,0.4,0.2,0.8,0.2h0.1c2.1,0,6.8-2.9,8.6-4
				c0.7-0.4,0.8-0.5,0.8-0.5c0.1,0,0.2,0,0.2,0.1c0,0,0.1,0.1,0.1,0.2c0,0.1-0.1,0.2-0.2,0.3L165,42
				C163.1,43.2,158.2,46.4,155.6,46.4z M158.5,40.2c-0.3,0-0.8,0.1-1.3,0.3c-1.3,0.6-2.8,2-3.2,3.7l0,0.1c0,0.1,0,0.3,0,0.4
				c0,0.4,0.2,0.8,0.5,1l0,0c0.3,0.2,0.7,0.3,1.1,0.3c2.6,0,7.5-3.1,9.3-4.3l0.3-0.2c0.1,0,0.1-0.1,0.1-0.1c0,0,0,0,0,0c0,0,0,0,0,0
				c-0.1,0-0.4,0.2-0.7,0.4c-1.8,1.1-6.5,4-8.7,4h-0.1c-0.5,0-0.8-0.1-1-0.3c-0.2-0.2-0.4-0.5-0.4-0.9c0-0.9,0.8-2.1,1.5-2.9
				l0.1-0.1l0.1,0.1c0.2,0.2,0.6,0.3,1,0.3c1.1,0,2.2-0.7,2.2-1.3c0-0.1,0-0.2-0.1-0.3C159,40.3,158.8,40.2,158.5,40.2z M157,41.9
				c-0.3,0-0.5-0.1-0.7-0.2l-0.1-0.1l0.1-0.1c0.2-0.2,1.5-1,2.1-1c0.3,0,0.4,0.1,0.5,0.3l0,0C158.9,41.3,157.7,41.9,157,41.9z
				 M156.6,41.5c0.1,0,0.2,0.1,0.4,0.1c0.7,0,1.6-0.5,1.7-0.7c0-0.1-0.1-0.1-0.2-0.1C157.9,40.7,156.9,41.3,156.6,41.5z"/>
		</g>
		<g>
			<linearGradient id="SVGID_21_" gradientUnits="userSpaceOnUse" x1="63.9025" y1="-23.0823" x2="192.557" y2="57.9643">
				<stop  offset="0" style="stop-color:#DBA73C"/>
				<stop  offset="0.16" style="stop-color:#D89D39"/>
				<stop  offset="0.54" style="stop-color:#F2F2B8"/>
				<stop  offset="0.56" style="stop-color:#F5EB98"/>
				<stop  offset="0.69" style="stop-color:#D4B667"/>
				<stop  offset="0.85" style="stop-color:#CFAA5B"/>
				<stop  offset="1" style="stop-color:#DFC67D"/>
			</linearGradient>
			<path class="st21" d="M161.7,46l0.1-0.2c0.5-0.7,2.9-4.2,3.7-5c0-0.1,0.1-0.1,0.2-0.1c0.2,0,0.3,0.2,0.3,0.3c0,0.1,0,0.1-0.1,0.2
				c-0.4,0.4-1.5,2-2.1,2.7c1.5-1.4,3.7-3.1,4.9-3.1h0.1c0.9,0.1,0.9,1.1,0.9,2.1v0.6c0,0.7,0,1.2,0.3,1.4c0.1,0.1,0.2,0.1,0.3,0.1
				c1.6,0,6.6-3.2,7.4-3.7c0.1-0.1,0.1-0.1,0.2-0.1c0.1,0,0.1,0,0.2,0.1c0,0,0.1,0.2-0.1,0.3c-1.1,0.8-5.8,4-7.8,4
				c-0.2,0-0.4,0-0.5-0.1c-1.1-0.7-0.1-3.9-1.1-4h-0.1c-1.6,0-5.5,3.8-6.4,4.7c-0.1,0.1-0.1,0.1-0.2,0.1
				C161.9,46.3,161.7,46.1,161.7,46z"/>
			<linearGradient id="SVGID_22_" gradientUnits="userSpaceOnUse" x1="63.9026" y1="-23.0825" x2="192.5571" y2="57.9641">
				<stop  offset="0" style="stop-color:#DBA73C"/>
				<stop  offset="0.16" style="stop-color:#D89D39"/>
				<stop  offset="0.54" style="stop-color:#F2F2B8"/>
				<stop  offset="0.56" style="stop-color:#F5EB98"/>
				<stop  offset="0.69" style="stop-color:#D4B667"/>
				<stop  offset="0.85" style="stop-color:#CFAA5B"/>
				<stop  offset="1" style="stop-color:#DFC67D"/>
			</linearGradient>
			<path class="st22" d="M162,46.4c-0.2,0-0.4-0.2-0.4-0.4l0,0l0.1-0.2c0.3-0.5,2.9-4.2,3.7-5c0.1-0.1,0.2-0.1,0.3-0.1
				c0.2,0,0.4,0.2,0.4,0.4c0,0.1,0,0.2-0.1,0.3c-0.3,0.3-0.9,1-1.4,1.8c1.2-1,3.1-2.4,4.2-2.4h0.1c1.1,0.1,1.1,1.4,1.1,2.3v0.6
				c0,0.6,0,1.1,0.3,1.3l0,0c0,0,0.2,0,0.3,0c1.4,0,5.9-2.8,7.4-3.7c0.1-0.1,0.2-0.1,0.2-0.1c0.1,0,0.2,0.1,0.3,0.1
				c0.1,0.1,0.1,0.3-0.1,0.5l-0.2,0.1c-1.4,1-5.8,3.9-7.7,3.9c-0.3,0-0.5,0-0.6-0.2c-0.6-0.4-0.6-1.5-0.6-2.4c0-0.8,0-1.5-0.4-1.6
				l-0.1,0c-1.4,0-4.8,3.2-6,4.3c-0.1,0.1-0.2,0.2-0.3,0.3C162.2,46.4,162.1,46.4,162,46.4z M161.8,46c0,0.1,0.1,0.1,0.2,0.1
				c0.1,0,0.1,0,0.1,0c0.1-0.1,0.2-0.2,0.3-0.3c1.4-1.3,4.6-4.4,6.2-4.4h0.1c0.6,0.1,0.6,0.9,0.6,1.8c0,0.9,0,1.9,0.5,2.2
				c0.1,0.1,0.3,0.1,0.5,0.1c1.8,0,6.1-2.9,7.5-3.8l0.2-0.1c0.1-0.1,0.1-0.1,0.1-0.1c0,0,0,0-0.1,0c0,0,0,0-0.1,0
				c-0.1,0-5.7,3.8-7.5,3.8c-0.2,0-0.3,0-0.4-0.1c-0.4-0.2-0.4-0.8-0.4-1.5v-0.6c0-1.2-0.1-1.9-0.8-2l-0.1,0c-1.3,0-3.8,2.1-4.9,3
				l-0.9,0.8l0.7-1c0.3-0.4,1.6-2.3,2.1-2.8c0,0,0.1-0.1,0.1-0.1c0-0.1-0.1-0.2-0.2-0.2c0,0,0,0,0,0l0,0c-0.8,0.8-3.1,4.1-3.7,5
				L161.8,46z"/>
		</g>
	</g>
</g>
</svg>
